<svg id="SvgjsSvg1001" width="288" height="288" xmlns="http://www.w3.org/2000/svg" version="1.1" xmlns:xlink="http://www.w3.org/1999/xlink" xmlns:svgjs="http://svgjs.com/svgjs"><defs id="SvgjsDefs1002"></defs><g id="SvgjsG1008" transform="matrix(1,0,0,1,0,0)"><svg xmlns="http://www.w3.org/2000/svg" enable-background="new 0 0 60 60" viewBox="0 0 60 60" width="288" height="288"><path d="M42.536,4H36V0H24v4h-6.536C15.554,4,14,5.554,14,7.464v49.072C14,58.446,15.554,60,17.464,60h25.072
	C44.446,60,46,58.446,46,56.536V7.464C46,5.554,44.446,4,42.536,4z M26,2h8v2h-8V2z M44,56.536C44,57.344,43.344,58,42.536,58
	H17.464C16.656,58,16,57.344,16,56.536V7.464C16,6.656,16.656,6,17.464,6H24h12h6.536C43.344,6,44,6.656,44,7.464V56.536z" fill="#939c97" class="color000 svgShape"></path></svg></g></svg>